PathFileType	4	(X/Y/Z)	 s03c0103.trc
DataRate	CameraRate	NumFrames	NumMarkers	Units	OrigDataRate	OrigDataStartFrame	OrigNumFrames
200	200	4	50	mm	200	1751	2000
Frame#	Time	racr			lacr			c7			jug			rlel			rdr			llel			ldr			s2			lic			ric			lasi			rasi			rpsi			lpsi			rgt			lgt			rth1			rth2			rth3			rth4			rlfc			rmfc			rsh1			rsh2			rsh3			rsh4			rlmal			rcal			rtoe			rmt5			rmt1			lth1			lth2			lth4			lth3			llfc			lmfc			lsh1			lsh2			lsh3			lsh4			llmal			lcal			ltoe			lmt1			lmt5			SBIKE			LBIKE			RBIKE			
		X1	Y1	Z1	X2	Y2	Z2	X3	Y3	Z3	X4	Y4	Z4	X5	Y5	Z5	X6	Y6	Z6	X7	Y7	Z7	X8	Y8	Z8	X9	Y9	Z9	X10	Y10	Z10	X11	Y11	Z11	X12	Y12	Z12	X13	Y13	Z13	X14	Y14	Z14	X15	Y15	Z15	X16	Y16	Z16	X17	Y17	Z17	X18	Y18	Z18	X19	Y19	Z19	X20	Y20	Z20	X21	Y21	Z21	X22	Y22	Z22	X23	Y23	Z23	X24	Y24	Z24	X25	Y25	Z25	X26	Y26	Z26	X27	Y27	Z27	X28	Y28	Z28	X29	Y29	Z29	X30	Y30	Z30	X31	Y31	Z31	X32	Y32	Z32	X33	Y33	Z33	X34	Y34	Z34	X35	Y35	Z35	X36	Y36	Z36	X37	Y37	Z37	X38	Y38	Z38	X39	Y39	Z39	X40	Y40	Z40	X41	Y41	Z41	X42	Y42	Z42	X43	Y43	Z43	X44	Y44	Z44	X45	Y45	Z45	X46	Y46	Z46	X47	Y47	Z47	X48	Y48	Z48	X49	Y49	Z49	X50	Y50	Z50	
1751	8.7550	483.915371	1410.155388	-93.440173	468.145407	1415.456790	-398.608738	406.147495	1495.558362	-244.683343	421.402018	1328.998145	-240.438894	529.588912	1150.515056	6.927434	732.823336	944.030289	-42.462250	544.641900	1156.685395	-453.298841	741.013001	927.575407	-407.681438	-106.974183	1203.360065	-226.774676	61.011051	1232.197988	-407.676554	58.820690	1234.240879	-43.271411	NaN	NaN	NaN	86.501015	1155.762290	-84.242002	-81.147958	1254.321517	-181.638336	-77.324111	1254.322308	-264.097154	-0.193099	1114.642994	-36.608531	10.253119	1152.583464	-429.842085	58.973723	963.502644	-17.145848	117.125914	896.000844	-17.824249	136.953188	813.210458	-31.117561	149.861843	912.826016	-24.532733	180.089624	696.405804	-65.485165	196.450274	683.505504	-177.956129	160.096411	528.768559	-35.988208	180.205283	442.004387	-46.177804	152.719717	357.742086	-49.281284	209.544325	442.743501	-71.359888	138.587222	224.418947	-71.008092	84.645461	171.560996	-107.982308	394.494371	194.144833	-110.620539	278.146537	164.215670	-39.002974	300.790466	187.728773	-152.434673	113.081462	1077.493411	-479.987243	195.052687	1065.427860	-504.260796	213.272750	1095.780449	-492.023290	261.852911	1007.767387	-522.974232	389.943949	946.780645	-537.086126	416.982233	937.698168	-407.647982	281.224284	812.558085	-520.257063	247.499248	742.719520	-483.509619	174.691589	695.009481	-459.550592	275.336825	729.197474	-459.661494	92.690758	607.065163	-411.820518	19.570146	582.799434	-355.003880	316.664814	500.931228	-357.920883	224.682012	517.396736	-312.602109	194.401173	503.794496	-426.165471	-217.309550	945.488252	-233.486717	-8.016179	83.919462	-436.844356	-13.883829	80.844401	-36.528467	
1752	8.7600	483.470263	1409.946040	-93.526680	467.697071	1415.226897	-398.507865	405.721787	1495.312898	-245.283698	420.910401	1328.760342	-240.471890	529.526072	1150.449392	6.814403	732.859426	944.019767	-42.492035	544.552055	1156.608654	-453.169880	741.016826	927.549949	-407.624682	-107.576755	1203.111965	-226.724365	60.426203	1232.022335	-407.624084	58.309889	1234.103101	-43.232142	NaN	NaN	NaN	86.007255	1155.588314	-84.169434	-81.700891	1254.130503	-181.541896	-77.910901	1254.111804	-264.102835	-0.774433	1114.485991	-36.535975	9.615981	1152.305205	-429.815166	58.408951	963.312542	-17.123876	116.616526	895.820330	-17.817439	136.340126	813.030671	-31.171567	149.253489	912.669445	-24.538674	179.483927	696.252948	-65.570721	195.931318	683.363761	-178.007750	159.638966	528.625388	-36.072942	179.820647	441.821482	-46.215805	152.358560	357.571822	-49.280736	209.161424	442.633845	-71.419340	138.428198	224.185710	-70.988074	84.517705	171.276939	-107.986502	394.317956	194.284980	-110.612954	278.002152	164.185305	-38.987118	300.599999	187.701980	-152.434350	112.529878	1077.275960	-479.933305	194.497279	1065.338356	-504.200655	212.646205	1095.233797	-490.994137	261.403133	1007.710753	-522.806669	389.559362	946.987607	-536.892045	416.547931	938.032018	-407.412550	280.993752	812.606756	-520.102409	247.336340	742.806872	-483.362441	174.572251	694.970687	-459.436658	275.210685	729.280380	-459.473074	92.602123	606.968146	-411.738416	19.494422	582.604667	-354.936989	316.635500	501.112195	-357.896806	224.666224	517.428903	-312.599048	194.393257	503.825363	-426.139240	-217.323444	945.478348	-233.459254	-8.008176	83.901739	-436.853597	-13.886103	80.868735	-36.526711	
1753	8.7650	482.891586	1409.767478	-93.695348	467.228846	1415.000410	-398.461780	405.200323	1495.038393	-245.279469	420.380966	1328.521502	-240.493938	529.455763	1150.380054	6.682237	732.906668	944.013933	-42.522665	544.457357	1156.507743	-453.015660	741.066894	927.509358	-407.594333	-108.180601	1202.988476	-226.651760	59.705102	1231.785004	-407.536911	57.830489	1233.984419	-43.175522	NaN	NaN	NaN	85.483778	1155.475195	-84.055271	-82.239788	1253.961734	-181.518588	-78.481933	1253.904641	-264.040416	-1.301750	1114.337992	-36.457959	8.856832	1152.068116	-429.791593	57.849850	963.158620	-17.149454	116.015115	895.658868	-17.851912	135.830320	812.849187	-31.188943	148.717073	912.496101	-24.514419	178.936057	696.143885	-65.642325	195.347879	683.178032	-178.066054	159.163227	528.480546	-36.109773	179.412019	441.637931	-46.243495	152.045010	357.432142	-49.260048	208.731212	442.494352	-71.425344	138.217221	223.989252	-70.939484	84.380429	170.972225	-107.961679	394.135702	194.425429	-110.591463	277.868263	164.145363	-38.979837	300.432054	187.673355	-152.416802	111.864790	1077.171208	-480.194053	193.977107	1065.234992	-504.090737	212.061395	1095.176292	-490.945545	260.902378	1007.629586	-522.643790	389.176710	947.177828	-536.688770	416.102348	938.304114	-407.184031	280.765874	812.677125	-519.974951	247.166680	742.838402	-483.222852	174.432348	694.930028	-459.347528	275.052763	729.365438	-459.311397	92.489797	606.882856	-411.669520	19.391305	582.431737	-354.892883	316.646050	501.243224	-357.855176	224.647150	517.458888	-312.566482	194.394905	503.847818	-426.090711	-217.345046	945.481793	-233.450551	-8.015247	83.900463	-436.845262	-13.877521	80.845169	-36.524322	
1754	8.7700	482.343819	1409.535575	-93.832141	466.796899	1414.755557	-398.420755	404.666793	1494.737057	-245.315371	419.835503	1328.276629	-240.559161	529.364835	1150.310995	6.584646	732.950039	943.983654	-42.586091	544.345112	1156.417743	-452.871178	741.068311	927.481601	-407.537297	-108.783642	1202.804898	-226.565332	59.036007	1231.608216	-407.522737	57.239413	1233.849679	-43.128547	NaN	NaN	NaN	84.853447	1155.322488	-83.976880	-82.822653	1253.800658	-181.521692	-79.100430	1253.716022	-263.960291	-1.858769	1114.183197	-36.409188	8.189566	1151.797060	-429.764234	57.282461	963.023671	-17.176993	115.444748	895.543118	-17.878219	135.262131	812.702972	-31.227600	148.170057	912.393042	-24.524811	178.358220	696.000892	-65.705109	194.726634	682.988502	-178.114874	158.717374	528.291832	-36.100282	179.019496	441.462447	-46.267577	151.720505	357.250327	-49.222318	208.310210	442.347823	-71.439010	138.040255	223.719631	-70.942786	84.254307	170.669449	-107.932830	393.940711	194.598706	-110.605203	277.748704	164.089865	-38.978651	300.243685	187.656975	-152.419947	111.274083	1076.973208	-480.164111	193.397578	1065.151765	-504.042206	211.441258	1095.129797	-490.880279	260.555332	1008.305211	-523.115479	388.777947	947.343014	-536.510774	415.672257	938.599494	-406.997219	280.513579	812.771778	-519.860634	246.962323	742.886288	-483.074636	174.268042	694.903703	-459.270527	274.858166	729.444978	-459.195127	92.396260	606.793958	-411.623656	19.306338	582.223008	-354.844762	316.629969	501.366066	-357.870543	224.582606	517.458662	-312.579747	194.387145	503.877282	-426.084174	-217.371822	945.458942	-233.425401	-8.011963	83.901829	-436.855602	-13.891233	80.862492	-36.535538	
